HIERARCHY
ROOT Hips
{
    OFFSET   0.000000   0.000000   0.000000
    CHANNELS 6 Xposition Yposition Zposition Zrotation Xrotation Yrotation
    JOINT Chest
    {
        OFFSET   0.000000   8.007230   0.000000
        CHANNELS 3 Zrotation Xrotation Yrotation
        JOINT Chest2
        {
            OFFSET   0.000000  22.077100   0.000000
            CHANNELS 3 Zrotation Xrotation Yrotation
            JOINT Neck
            {
                OFFSET   0.000000  23.254700   0.000000
                CHANNELS 3 Zrotation Xrotation Yrotation
                JOINT Head
                {
                    OFFSET   0.000010  14.370000   1.956610
                    CHANNELS 3 Zrotation Xrotation Yrotation
                    End Site
                    {
                        OFFSET   0.000000  19.566000   0.000000
                    }
                }
            }
            JOINT LeftCollar
            {
                OFFSET   3.911900  19.017000  -0.467063
                CHANNELS 3 Zrotation Xrotation Yrotation
                JOINT LeftShoulder
                {
                    OFFSET  10.383700   0.000000   0.000000
                    CHANNELS 3 Zrotation Xrotation Yrotation
                    JOINT LeftElbow
                    {
                        OFFSET  26.662100   0.001671   0.000522
                        CHANNELS 3 Zrotation Xrotation Yrotation
                        JOINT LeftWrist
                        {
                            OFFSET  28.869000   0.000037  -0.000114
                            CHANNELS 3 Zrotation Xrotation Yrotation
                            JOINT LeftFinger0
                            {
                                OFFSET   2.044650  -2.323450   3.252850
                                CHANNELS 3 Zrotation Xrotation Yrotation
                                JOINT LeftFinger01
                                {
                                    OFFSET   3.088140   0.000000   0.000000
                                    CHANNELS 3 Zrotation Xrotation Yrotation
                                    JOINT LeftFinger02
                                    {
                                        OFFSET   2.639460   0.000000   0.000000
                                        CHANNELS 3 Zrotation Xrotation Yrotation
                                        End Site
                                        {
                                            OFFSET   2.582190   0.000000   0.000000
                                        }
                                    }
                                }
                            }
                            JOINT LeftFinger1
                            {
                                OFFSET   8.364480   0.000000   3.252850
                                CHANNELS 3 Zrotation Xrotation Yrotation
                                JOINT LeftFinger11
                                {
                                    OFFSET   4.646930   0.000000   0.000000
                                    CHANNELS 3 Zrotation Xrotation Yrotation
                                    JOINT LeftFinger12
                                    {
                                        OFFSET   2.323470   0.000000   0.000000
                                        CHANNELS 3 Zrotation Xrotation Yrotation
                                        End Site
                                        {
                                            OFFSET   2.273050   0.000000   0.000000
                                        }
                                    }
                                }
                            }
                            JOINT LeftFinger2
                            {
                                OFFSET   8.364490   0.000016   1.078090
                                CHANNELS 3 Zrotation Xrotation Yrotation
                                JOINT LeftFinger21
                                {
                                    OFFSET   5.111620   0.000000   0.000000
                                    CHANNELS 3 Zrotation Xrotation Yrotation
                                    JOINT LeftFinger22
                                    {
                                        OFFSET   2.788150   0.000013   0.000000
                                        CHANNELS 3 Zrotation Xrotation Yrotation
                                        End Site
                                        {
                                            OFFSET   2.727660   0.000000   0.000000
                                        }
                                    }
                                }
                            }
                            JOINT LeftFinger3
                            {
                                OFFSET   7.899780   0.000016  -1.078090
                                CHANNELS 3 Zrotation Xrotation Yrotation
                                JOINT LeftFinger31
                                {
                                    OFFSET   4.646930   0.000000   0.000000
                                    CHANNELS 3 Zrotation Xrotation Yrotation
                                    JOINT LeftFinger32
                                    {
                                        OFFSET   2.323470   0.000000   0.000000
                                        CHANNELS 3 Zrotation Xrotation Yrotation
                                        End Site
                                        {
                                            OFFSET   2.273050   0.000000   0.000000
                                        }
                                    }
                                }
                            }
                            JOINT LeftFinger4
                            {
                                OFFSET   7.435080   0.000000  -3.252850
                                CHANNELS 3 Zrotation Xrotation Yrotation
                                JOINT LeftFinger41
                                {
                                    OFFSET   3.717550   0.000000   0.000000
                                    CHANNELS 3 Zrotation Xrotation Yrotation
                                    JOINT LeftFinger42
                                    {
                                        OFFSET   1.858760   0.000000   0.000000
                                        CHANNELS 3 Zrotation Xrotation Yrotation
                                        End Site
                                        {
                                            OFFSET   1.818440   0.000000   0.000000
                                        }
                                    }
                                }
                            }
                        }
                    }
                }
            }
            JOINT RightCollar
            {
                OFFSET  -3.911900  19.017000  -0.467064
                CHANNELS 3 Zrotation Xrotation Yrotation
                JOINT RightShoulder
                {
                    OFFSET -10.383700   0.000000   0.000000
                    CHANNELS 3 Zrotation Xrotation Yrotation
                    JOINT RightElbow
                    {
                        OFFSET -26.662100   0.001633   0.000260
                        CHANNELS 3 Zrotation Xrotation Yrotation
                        JOINT RightWrist
                        {
                            OFFSET -28.869000  -0.000045  -0.000080
                            CHANNELS 3 Zrotation Xrotation Yrotation
                            JOINT RightFinger0
                            {
                                OFFSET  -2.044660  -2.323490   3.252850
                                CHANNELS 3 Zrotation Xrotation Yrotation
                                JOINT RightFinger01
                                {
                                    OFFSET  -3.088140   0.000000   0.000000
                                    CHANNELS 3 Zrotation Xrotation Yrotation
                                    JOINT RightFinger02
                                    {
                                        OFFSET  -2.639450   0.000000   0.000000
                                        CHANNELS 3 Zrotation Xrotation Yrotation
                                        End Site
                                        {
                                            OFFSET  -2.582190   0.000000   0.000000
                                        }
                                    }
                                }
                            }
                            JOINT RightFinger1
                            {
                                OFFSET  -8.364480   0.000000   3.252850
                                CHANNELS 3 Zrotation Xrotation Yrotation
                                JOINT RightFinger11
                                {
                                    OFFSET  -4.646920   0.000000   0.000000
                                    CHANNELS 3 Zrotation Xrotation Yrotation
                                    JOINT RightFinger12
                                    {
                                        OFFSET  -2.323470   0.000000   0.000000
                                        CHANNELS 3 Zrotation Xrotation Yrotation
                                        End Site
                                        {
                                            OFFSET  -2.273050   0.000000   0.000000
                                        }
                                    }
                                }
                            }
                            JOINT RightFinger2
                            {
                                OFFSET  -8.364480   0.000000   1.078090
                                CHANNELS 3 Zrotation Xrotation Yrotation
                                JOINT RightFinger21
                                {
                                    OFFSET  -5.111610   0.000000   0.000000
                                    CHANNELS 3 Zrotation Xrotation Yrotation
                                    JOINT RightFinger22
                                    {
                                        OFFSET  -2.788160   0.000000   0.000000
                                        CHANNELS 3 Zrotation Xrotation Yrotation
                                        End Site
                                        {
                                            OFFSET  -2.727660   0.000000   0.000000
                                        }
                                    }
                                }
                            }
                            JOINT RightFinger3
                            {
                                OFFSET  -7.899780   0.000000  -1.078090
                                CHANNELS 3 Zrotation Xrotation Yrotation
                                JOINT RightFinger31
                                {
                                    OFFSET  -4.646930   0.000000   0.000000
                                    CHANNELS 3 Zrotation Xrotation Yrotation
                                    JOINT RightFinger32
                                    {
                                        OFFSET  -2.323470   0.000000   0.000000
                                        CHANNELS 3 Zrotation Xrotation Yrotation
                                        End Site
                                        {
                                            OFFSET  -2.273050   0.000000   0.000000
                                        }
                                    }
                                }
                            }
                            JOINT RightFinger4
                            {
                                OFFSET  -7.435090   0.000000  -3.252850
                                CHANNELS 3 Zrotation Xrotation Yrotation
                                JOINT RightFinger41
                                {
                                    OFFSET  -3.717550   0.000000   0.000000
                                    CHANNELS 3 Zrotation Xrotation Yrotation
                                    JOINT RightFinger42
                                    {
                                        OFFSET  -1.858760   0.000000   0.000000
                                        CHANNELS 3 Zrotation Xrotation Yrotation
                                        End Site
                                        {
                                            OFFSET  -1.818440   0.000000   0.000000
                                        }
                                    }
                                }
                            }
                        }
                    }
                }
            }
        }
    }
    JOINT LeftHip
    {
        OFFSET   9.782990   0.000000   0.000000
        CHANNELS 3 Zrotation Xrotation Yrotation
        JOINT LeftKnee
        {
            OFFSET  -0.000063 -41.789100   0.001657
            CHANNELS 3 Zrotation Xrotation Yrotation
            JOINT LeftAnkle
            {
                OFFSET   0.000078 -41.133200  -0.000113
                CHANNELS 3 Zrotation Xrotation Yrotation
                JOINT LeftToe
                {
                    OFFSET   0.000000  -6.358970  14.674500
                    CHANNELS 3 Zrotation Xrotation Yrotation
                    End Site
                    {
                        OFFSET   0.000000   0.000000   3.913200
                    }
                }
            }
        }
    }
    JOINT RightHip
    {
        OFFSET  -9.782990   0.000000   0.000000
        CHANNELS 3 Zrotation Xrotation Yrotation
        JOINT RightKnee
        {
            OFFSET   0.000053 -41.789200   0.000277
            CHANNELS 3 Zrotation Xrotation Yrotation
            JOINT RightAnkle
            {
                OFFSET   0.000030 -41.133200  -0.000150
                CHANNELS 3 Zrotation Xrotation Yrotation
                JOINT RightToe
                {
                    OFFSET   0.000000  -6.358960  14.674500
                    CHANNELS 3 Zrotation Xrotation Yrotation
                    End Site
                    {
                        OFFSET   0.000000   0.000000   3.913200
                    }
                }
            }
        }
    }
}
MOTION
Frames: 5
Frame Time:   0.016667
 -0.533493  89.590400  -1.796480  -3.297660  -7.875510  -8.471900   0.394089   5.174120   0.784420   0.721122  10.353100   1.542440   0.574959  -0.934784   0.004265   0.945163  -1.899160   2.024960  -5.599630  -0.593865   3.299320 -73.218500  18.003300  -3.567420  -0.108323  -0.606539 -18.505700  11.117500  -4.485040   4.198640  42.099200  38.893300 -70.803400 -32.273700   0.000000   0.000000 -11.136900   0.001547  -0.000000 -30.850200   5.213160  -8.649380 -25.564000   0.008215   0.000835 -17.894800   0.011866   0.000453 -28.284100  -1.681460   3.121540 -34.467300  -0.000705   0.001638 -22.955200   0.011031  -0.000822 -27.862700  -1.657880   3.134130 -31.354400  -0.009931   0.000402 -20.882000   0.000570   0.000216 -28.889700  -1.714450   3.103520 -43.404400  -0.002115   0.000179 -28.907300  -0.000313  -0.009952  10.766200   1.050980   8.212280  68.568400   0.621207  -4.266510  -3.720880  -9.660820  14.468900  -9.662110  -0.950407   3.857000 -41.138200  34.204700  66.359200  29.018200  -0.000603   0.000423   9.515660   0.003680   0.000393  34.244100  11.059300  15.741100  29.272300  -0.000279   0.001865  20.490600  -0.001908   0.001578  42.459800   4.765610   5.197050  54.420300  -0.000338  -0.004193  38.055400   0.007896   0.003911  39.585700   2.771140   3.341330  54.305300  -0.005398  -0.002763  37.178200   0.001956   0.001439  48.763200  -4.032530  -3.528900  73.330300   0.000822  -0.002040  48.838000  -0.000656  -0.001310   2.825840  10.141700   6.381770   1.121280   0.127309   6.332860  -2.348570  -2.719780   0.762876  -0.000000   0.000000  -0.000000   3.880220   7.854550   2.908070  -1.899570   2.348950  -7.049340  -0.261420  -2.608990   0.771987   0.000000   0.000000  -0.000000
 -0.539154  89.590400  -1.822540  -3.308830  -7.883660  -8.486980   0.393238   5.185480   0.773895   0.720234  10.375700   1.521290   0.589408  -0.933224   0.004276   0.968971  -1.894260   1.982680  -5.595310  -0.593852   3.299300 -73.210700  18.057900  -3.581160  -0.130105  -0.652893 -18.510000  11.087300  -4.460000   4.161850  42.117700  38.916700 -70.884000 -32.254600   0.000000   0.000037 -11.127400   0.001548   0.000000 -30.867900   5.239910  -8.687800 -25.581300   0.008208   0.000835 -17.906900   0.011865   0.000461 -28.286100  -1.660270   3.081630 -34.508000  -0.000709   0.001638 -22.982300   0.011035  -0.000819 -27.865000  -1.637100   3.094000 -31.396200  -0.009935   0.000403 -20.909800   0.000565   0.000218 -28.921500  -1.694020   3.063200 -43.450200  -0.002115   0.000180 -28.937800  -0.000315  -0.009952  10.776600   1.050560   8.225030  68.512200   0.599775  -4.296770  -3.722020  -9.674640  14.443000  -9.665130  -0.933652   3.867500 -41.135500  34.209900  66.354400  29.022100  -0.000607   0.000432   9.515650   0.003672   0.000378  34.224700  11.058500  15.749300  29.257100  -0.000277   0.001866  20.480000  -0.001910   0.001568  42.415900   4.765570   5.205060  54.420400  -0.000339  -0.004195  38.043500   0.007893   0.003903  39.555500   2.771120   3.346880  54.305300  -0.005397  -0.002771  37.168900   0.001947   0.001435  48.752600  -4.032530  -3.529110  73.314900   0.000826  -0.002050  48.827700  -0.000660  -0.001315   2.833760  10.156900   6.389820   1.122250   0.088559   6.332980  -2.346750  -2.680720   0.770908   0.000000   0.000000   0.000000   3.905470   7.848280   2.907970  -1.921820   2.350270  -7.040290  -0.247582  -2.593180   0.780295  -0.000000   0.000000  -0.000000
 -0.548230  89.590300  -1.866350  -3.327750  -7.897810  -8.515450   0.391605   5.205130   0.757212   0.718249  10.414900   1.487790   0.612225  -0.930050   0.004293   1.006550  -1.885540   1.911260  -5.588570  -0.593760   3.299260 -73.199600  18.133400  -3.601230  -0.158720  -0.699170 -18.532600  11.055600  -4.435060   4.105730  42.136200  38.940000 -70.964700 -32.226900   0.000000   0.000074 -11.113500   0.001549  -0.000000 -30.883700   5.276070  -8.740300 -25.598700   0.008202   0.000835 -17.919100   0.011864   0.000474 -28.289000  -1.630670   3.025930 -34.548700  -0.000719   0.001638 -23.009400   0.011045  -0.000814 -27.868100  -1.608040   3.038000 -31.438000  -0.009949   0.000404 -20.937700   0.000553   0.000222 -28.954400  -1.665360   3.006980 -43.497200  -0.002115   0.000182 -28.969200  -0.000316  -0.009953  10.793400   1.050120   8.248290  68.413000   0.557770  -4.345550  -3.726500  -9.689310  14.397400  -9.670490  -0.909137   3.887350 -41.130800  34.218800  66.346000  29.031300  -0.000623   0.000448   9.515640   0.003653   0.000344  34.193800  11.056800  15.762500  29.232900  -0.000274   0.001867  20.463000  -0.001914   0.001543  42.346000   4.765530   5.217840  54.420500  -0.000346  -0.004197  38.024400   0.007887   0.003881  39.508800   2.771100   3.355480  54.305300  -0.005394  -0.002794  37.154400   0.001923   0.001427  48.734800  -4.032530  -3.529320  73.288700   0.000836  -0.002077  48.810200  -0.000669  -0.001331   2.847540  10.172000   6.400700   1.123210   0.049808   6.333850  -2.344570  -2.641650   0.786730   0.000000   0.000000   0.000000   3.947380   7.830790   2.907780  -1.958670   2.359280  -7.022490  -0.225466  -2.570940   0.794455   0.000000   0.000000  -0.000000
 -0.554348  89.590300  -1.902070  -3.343600  -7.909970  -8.545920   0.389727   5.222210   0.746377   0.715271  10.449000   1.466090   0.628054  -0.926340   0.004300   1.032560  -1.877640   1.852510  -5.584170  -0.591173   3.299210 -73.195200  18.162000  -3.610060  -0.172979  -0.689441 -18.584900  11.053100  -4.435490   4.070230  42.143800  38.939600 -70.963600 -32.211600   0.000000   0.000037 -11.105900   0.001536   0.000000 -30.880900   5.287070  -8.758130 -25.598300   0.008206   0.000852 -17.918700   0.011865   0.000482 -28.290200  -1.618210   3.002690 -34.545800  -0.000735   0.001641 -23.007400   0.011062  -0.000810 -27.866200  -1.595770   3.014650 -31.436600  -0.009972   0.000403 -20.936800   0.000533   0.000228 -28.955800  -1.652860   2.983750 -43.498000  -0.002118   0.000184 -28.969800  -0.000314  -0.009948  10.805000   1.053010   8.269620  68.325300   0.508319  -4.381030  -3.733370  -9.690930  14.356600  -9.676600  -0.898829   3.908990 -41.128100  34.226500  66.340200  29.043400  -0.000659   0.000460   9.520410   0.003625   0.000293  34.173600  11.054700  15.771200  29.216800  -0.000273   0.001867  20.451800  -0.001921   0.001504  42.298900   4.765540   5.226460  54.420700  -0.000363  -0.004198  38.011500   0.007878   0.003846  39.479800   2.771970   3.360820  54.304300  -0.005388  -0.002835  37.145500   0.001887   0.001416  48.719100  -4.027950  -3.528880  73.265100   0.000849  -0.002117  48.794500  -0.000683  -0.001355   2.860910  10.153000   6.403430   1.123100   0.083852   6.338790  -2.346160  -2.643000   0.804594   0.000000   0.000000  -0.000000   3.979070   7.801270   2.911270  -1.985750   2.391350  -7.000740  -0.209006  -2.561020   0.805063  -0.000000   0.000000   0.000000
 -0.560811  89.590200  -1.938490  -3.359680  -7.923520  -8.579070   0.387803   5.240520   0.735157   0.712229  10.485600   1.443610   0.641898  -0.921863   0.004309   1.055280  -1.868670   1.791870  -5.580590  -0.587085   3.299170 -73.192700  18.171700  -3.618010  -0.184180  -0.669633 -18.652400  11.052600  -4.437260   4.043630  42.152600  38.938400 -70.960000 -32.204900   0.000000   0.000000 -11.102500   0.001523   0.000000 -30.880800   5.288640  -8.761890 -25.597800   0.008214   0.000880 -17.918400   0.011866   0.000492 -28.290600  -1.614170   2.995230 -34.542800  -0.000756   0.001645 -23.005500   0.011085  -0.000802 -27.863400  -1.591770   3.007170 -31.435300  -0.010006   0.000402 -20.935900   0.000508   0.000238 -28.956400  -1.648600   2.976410 -43.498900  -0.002124   0.000185 -28.970300  -0.000312  -0.009943  10.816100   1.058730   8.296310  68.224200   0.456623  -4.414730  -3.741000  -9.692070  14.312000  -9.680750  -0.888325   3.931800 -41.131500  34.239500  66.338400  29.059900  -0.000703   0.000480   9.529980   0.003591   0.000231  34.152100  11.052200  15.780500  29.199700  -0.000270   0.001867  20.439800  -0.001932   0.001454  42.251500   4.765580   5.235140  54.420900  -0.000387  -0.004199  37.998400   0.007866   0.003801  39.452900   2.773600   3.365750  54.302500  -0.005380  -0.002887  37.137200   0.001839   0.001400  48.705700  -4.021480  -3.527880  73.244600   0.000866  -0.002169  48.780900  -0.000700  -0.001387   2.873590  10.134100   6.404140   1.122980   0.117895   6.347190  -2.348900  -2.644360   0.825159   0.000000   0.000000   0.000000   4.012130   7.764820   2.916870  -2.012540   2.441570  -6.979530  -0.195151  -2.557520   0.818804  -0.000000   0.000000   0.000000
